#N canvas 724 119 1366 671 12;
#X floatatom 640 190 5 0 0 2 Division - -;
#X floatatom 511 226 5 0 0 2 Step - -;
#X floatatom 437 179 5 0 0 2 Root_Midi - -;
#X obj 502 544 *~;
#X obj 486 586 dac~;
#X floatatom 520 480 5 0 1 1 Vol - -;
#X obj 545 326 bng 15 250 50 0 empty empty empty 17 7 0 10 -262144
-1 -1;
#N canvas 312 425 1366 671 edos 0;
#X obj 310 247 *;
#X obj 340 223 pow;
#X msg 320 169 2;
#X obj 365 192 /;
#X floatatom 132 158 5 0 0 0 - - -;
#X obj 316 149 bng 15 250 50 0 empty empty empty 17 7 0 10 -262144
-1 -1;
#X obj 391 164 f;
#X obj 130 184 f;
#X obj 130 105 inlet;
#X obj 347 113 inlet;
#X obj 440 109 inlet;
#X obj 291 304 outlet;
#X obj 129 132 mtof;
#X connect 0 0 11 0;
#X connect 1 0 0 1;
#X connect 2 0 1 0;
#X connect 3 0 1 1;
#X connect 4 0 7 1;
#X connect 5 0 2 0;
#X connect 5 0 6 0;
#X connect 5 0 7 0;
#X connect 6 0 3 1;
#X connect 7 0 0 0;
#X connect 8 0 12 0;
#X connect 9 0 3 0;
#X connect 9 0 5 0;
#X connect 10 0 6 1;
#X connect 12 0 4 0;
#X restore 476 278 pd edos;
#X floatatom 414 328 5 0 0 0 - - -;
#X obj 502 74 tgl 15 0 empty empty empty 17 7 0 10 -262144 -1 -1 1
1;
#X floatatom 529 70 5 0 0 0 - - -;
#N canvas 0 61 1366 671 enveloppe 0;
#X obj 126 120 osc~;
#X obj 132 163 *~;
#X obj 180 134 vline~;
#X obj 106 39 inlet;
#X obj 218 33 inlet;
#X obj 128 211 outlet~;
#X obj 232 67 bng 15 250 50 0 empty empty empty 17 7 0 10 -262144 -1
-1;
#X obj 169 46 inlet;
#X obj 178 74 f;
#X msg 188 97 1 20 \, 0 \$1 20;
#X connect 0 0 1 0;
#X connect 1 0 5 0;
#X connect 2 0 1 1;
#X connect 3 0 0 0;
#X connect 4 0 6 0;
#X connect 6 0 8 0;
#X connect 7 0 8 1;
#X connect 8 0 9 0;
#X connect 9 0 2 0;
#X restore 477 399 pd enveloppe;
#X obj 501 103 metro;
#X obj 716 33 receive fromGUI;
#X obj 717 62 route list;
#X floatatom 722 138 5 0 0 0 - - -;
#X obj 715 93 route /myKnob1;
#X obj 752 172 * 10;
#X obj 821 92 route /myKnob2;
#X floatatom 831 127 5 0 0 0 - - -;
#X obj 820 228 +;
#X obj 831 169 f;
#X obj 799 146 bng 15 250 50 0 empty empty empty 17 7 0 10 -262144
-1 -1;
#X obj 772 217 f;
#X obj 713 175 bng 15 250 50 0 empty empty empty 17 7 0 10 -262144
-1 -1;
#X obj 299 94 receive fromGUI;
#X obj 299 126 route list;
#X obj 297 150 route /mySlider1;
#X obj 439 217 + 55;
#X obj 365 10 receive fromGUI;
#X obj 365 42 route list;
#X obj 363 66 route /mySlider2;
#X obj 522 36 * 1.5;
#X obj 188 12 receive fromGUI;
#X obj 188 44 route list;
#X obj 186 68 route /myToggle;
#X obj 617 371 receive fromGUI;
#X obj 617 403 route list;
#X obj 615 427 route /mySlider3;
#X obj 507 128 f;
#X obj 545 129 + 1;
#X obj 509 162 %;
#X obj 547 165 + 1;
#X msg 573 96 1;
#X msg 611 96 -1;
#X obj 601 70 bng 15 250 50 0 empty empty empty 17 7 0 10 -262144 -1
-1;
#X obj 589 9 sel 1;
#X obj 595 41 sel 4;
#X obj 648 27 - 1;
#X obj 544 93 bng 15 250 50 0 empty empty empty 17 7 0 10 -262144 -1
-1;
#X connect 0 0 7 2;
#X connect 0 0 42 0;
#X connect 0 0 48 0;
#X connect 1 0 7 1;
#X connect 1 0 6 0;
#X connect 2 0 28 0;
#X connect 3 0 4 0;
#X connect 3 0 4 1;
#X connect 5 0 3 1;
#X connect 6 0 11 2;
#X connect 7 0 8 0;
#X connect 8 0 11 0;
#X connect 9 0 12 0;
#X connect 10 0 12 1;
#X connect 10 0 11 1;
#X connect 10 0 49 0;
#X connect 11 0 3 0;
#X connect 12 0 39 0;
#X connect 13 0 14 0;
#X connect 14 0 16 0;
#X connect 14 0 18 0;
#X connect 15 0 17 0;
#X connect 15 0 24 0;
#X connect 16 0 15 0;
#X connect 17 0 23 1;
#X connect 18 0 19 0;
#X connect 19 0 22 0;
#X connect 19 0 21 1;
#X connect 20 0 0 0;
#X connect 21 0 20 1;
#X connect 22 0 21 0;
#X connect 22 0 23 0;
#X connect 23 0 20 0;
#X connect 24 0 23 0;
#X connect 25 0 26 0;
#X connect 26 0 27 0;
#X connect 27 0 2 0;
#X connect 28 0 7 0;
#X connect 29 0 30 0;
#X connect 30 0 31 0;
#X connect 31 0 32 0;
#X connect 32 0 10 0;
#X connect 33 0 34 0;
#X connect 34 0 35 0;
#X connect 35 0 9 0;
#X connect 36 0 37 0;
#X connect 37 0 38 0;
#X connect 38 0 5 0;
#X connect 39 0 40 0;
#X connect 39 0 41 0;
#X connect 40 0 39 1;
#X connect 41 0 1 0;
#X connect 41 0 46 0;
#X connect 41 0 47 0;
#X connect 42 0 41 1;
#X connect 43 0 40 1;
#X connect 44 0 40 1;
#X connect 45 0 44 0;
#X connect 46 0 43 0;
#X connect 47 0 45 0;
#X connect 48 0 47 1;
#X connect 49 0 43 0;
